# xmcd CD database file
#
# Track frame offsets:
#	150
#	16875
#	33867
#	51362
#	71672
#	89577
#	105260
#	127360
#	148785
#	162912
#	181085
#	199875
#	220177
#	237215
#	253342
#	275292
#
# Disc length: 3922 seconds
#
# Revision: 4
# Processed by: cddbd v1.5.2PL0 Copyright (c) Steve Scherf et al.
# Submitted via: CDex 1.70beta2
#
DISCID=eb0f5010
DTITLE=オムニバス - New Music Best Collection 07
DYEAR=1991
DGENRE=JPop
TTITLE0=荒井由実 - 中央フリーウェイ
TTITLE1=荒井由実 - あの日に帰りたい
TTITLE2=Hi-Fi Set - 冷たい雨
TTITLE3=Hi-Fi Set - フィーリング
TTITLE4=サーカス - Mr.サマータイム
TTITLE5=サーカス - アメリカン・フィーリング
TTITLE6=吉田美奈子 - 愛は思うまま
TTITLE7=三好鉄生 - 涙をふいて
TTITLE8=荒井由実 - ルージュの伝言
TTITLE9=荒井由実 - やさしさに包まれたなら
TTITLE10=Yellow Magic Orchestra - 君に、胸キュン。
TTITLE11=Yellow Magic Orchestra - RYDEEN
TTITLE12=ブレッド and バター - 青い地平線
TTITLE13=ブレッド and バター - あの頃のまま
TTITLE14=荒井由実 - 翳りゆく部屋
TTITLE15=荒井由実 - 卒業写真
EXTD=YEAR: 1991
EXTT0=
EXTT1=
EXTT2=
EXTT3=
EXTT4=
EXTT5=
EXTT6=
EXTT7=
EXTT8=
EXTT9=
EXTT10=
EXTT11=
EXTT12=
EXTT13=
EXTT14=
EXTT15=
PLAYORDER=
